<?xml version="1.0" encoding="utf-8"?>
<!-- Generator: Adobe Illustrator 16.0.0, SVG Export Plug-In . SVG Version: 6.00 Build 0)  -->
<!DOCTYPE svg PUBLIC "-//W3C//DTD SVG 1.1//EN" "http://www.w3.org/Graphics/SVG/1.1/DTD/svg11.dtd">
<svg version="1.1" id="Layer_1" xmlns="http://www.w3.org/2000/svg" xmlns:xlink="http://www.w3.org/1999/xlink" x="0px" y="0px"
	 width="284.4px" height="284.4px" viewBox="0 0 284.4 284.4" enable-background="new 0 0 284.4 284.4" xml:space="preserve">
<g>
	<g>
		<g>
			<path fill="#2B2C6C" d="M38.608,163.12c0-65.611,53.188-118.8,118.801-118.8c65.611,0,118.801,53.188,118.801,118.8
				c0,9.012-1.01,17.787-2.912,26.227c5.502-15.041,8.504-31.283,8.504-48.227c0-77.541-62.859-140.4-140.401-140.4
				C63.859,0.72,1,63.579,1,141.12c0,77.539,62.859,140.4,140.4,140.4c1.716,0,3.423-0.043,5.124-0.104
				C86.015,275.918,38.608,225.061,38.608,163.12z"/>
		</g>
	</g>
	<g>
		<g>
			<path fill="#44C1F0" d="M71.964,184.317c0-49.705,40.294-89.999,90.001-89.999c43.533,0,79.846,30.908,88.193,71.978
				c0.072-1.52,0.113-3.047,0.113-4.584c0-51.693-41.906-93.598-93.6-93.598c-51.695,0-93.601,41.905-93.601,93.598
				c0,16.58,4.316,32.146,11.877,45.652C73.005,200.008,71.964,192.284,71.964,184.317z"/>
		</g>
	</g>
	<g>
		<g>
			<path fill="#2B2C6C" d="M207.756,195.518l-49.883,86.4h99.766L207.756,195.518z M207.756,199.336l27,46.764h-54L207.756,199.336z
				"/>
		</g>
	</g>
</g>
</svg>
